<svg width="16" height="16" viewBox="0 0 16 16" fill="none" xmlns="http://www.w3.org/2000/svg">
<path fill-rule="evenodd" clip-rule="evenodd" d="M6.36035 7.21202C6.40821 7.36198 6.86447 11.3652 6.90489 11.4715C7.06442 11.8906 7.70999 10.8706 7.92908 10.776C8.00885 10.8632 8.32472 11.429 8.40874 11.5715C8.49276 11.714 8.56508 11.8384 8.6491 11.9799C8.72046 12.1205 8.80223 12.2556 8.89372 12.384L8.97987 12.4074C9.13536 12.3358 9.28599 12.2541 9.43081 12.1628C9.58295 12.082 9.72841 11.9892 9.8658 11.8852L9.88601 11.8055C9.81581 11.5853 9.55206 11.1918 9.42549 10.9759C9.34998 10.8483 8.97668 10.2452 8.9554 10.1591C9.17875 10.1102 9.40103 10.04 9.618 9.98255L9.94769 9.89109C10.0934 9.85068 10.1498 9.71348 10.054 9.60925C9.95833 9.50502 6.72515 7.18436 6.6156 7.06737L6.41566 7.01526L6.36035 7.21202Z" fill="#EF7C00"/>
<path fill-rule="evenodd" clip-rule="evenodd" d="M7.9994 0.00212594C9.21208 0.00358428 10.4086 0.280568 11.4985 0.812159C12.5885 1.34375 13.5434 2.11605 14.2912 3.07073C15.0389 4.02542 15.56 5.13754 15.815 6.3231C16.0701 7.50865 16.0524 8.73666 15.7633 9.91438H10.5615C10.5977 9.80284 10.6024 9.68347 10.5752 9.5694C10.548 9.45532 10.4899 9.35095 10.4073 9.26775C10.3338 9.19822 10.2552 9.13423 10.1722 9.07631C10.0403 8.97633 9.9074 8.87849 9.77446 8.78064C9.39016 8.49703 9.00587 8.21625 8.62157 7.93831C8.25358 7.6703 7.88595 7.40193 7.51867 7.13321L7.31235 6.98431H12.9119C12.7202 6.05552 12.2691 5.20012 11.6109 4.51739C10.9526 3.83465 10.1143 3.35256 9.19314 3.12706C8.27198 2.90157 7.30575 2.94191 6.40659 3.24341C5.50742 3.5449 4.71219 4.09519 4.11316 4.83042C3.51413 5.56565 3.13587 6.45567 3.02228 7.39721C2.90868 8.33875 3.0644 9.2932 3.47138 10.1498C3.87835 11.0064 4.51988 11.73 5.32154 12.2367C6.12319 12.7434 7.0521 13.0124 8.00046 13.0125H14.235C13.3877 14.0664 12.2871 14.8884 11.0359 15.4016C9.78482 15.9147 8.42403 16.1024 7.08071 15.947C5.73739 15.7916 4.45538 15.2982 3.35446 14.513C2.25354 13.7277 1.36963 12.6762 0.785336 11.4567C0.201037 10.2371 -0.0645898 8.8894 0.0132743 7.53936C0.0911384 6.18933 0.509952 4.88106 1.23058 3.73679C1.95122 2.59252 2.95015 1.6496 4.13405 0.996114C5.31795 0.342633 6.64818 -7.77412e-05 8.00046 1.32278e-08L7.9994 0.00212594Z" fill="#004263"/>
</svg>
